<svg id="Layer_1" data-name="Layer 1" height="220px" xmlns="http://www.w3.org/2000/svg" viewBox="0 0 252 252"><defs><style>.cls-1{fill:#231f20;}</style></defs><title>Mixily_LandingPage_Icon</title><path class="cls-1" d="M119.69,87.14H69.32a3.55,3.55,0,0,0-3.54,3.54V120.1a3.55,3.55,0,0,0,3.54,3.54h50.37a3.54,3.54,0,0,0,3.54-3.54V90.68A3.54,3.54,0,0,0,119.69,87.14Zm1.84,33a1.84,1.84,0,0,1-1.84,1.84H69.32a1.85,1.85,0,0,1-1.84-1.84V90.68a1.85,1.85,0,0,1,1.84-1.84h50.37a1.84,1.84,0,0,1,1.84,1.84Z"/><path class="cls-1" d="M96.57,107.51H92.14c-5.36,0-9.72,3.6-9.72,8,0,2.42,0,3.77.09,4a.84.84,0,0,0,.95.69.88.88,0,0,0,.73-1c0-.24,0-2.09-.07-3.73,0-3.5,3.6-6.35,8-6.35h4.43c4.41,0,8,2.85,8,6.34,0,1.65,0,3.5-.06,3.71a.86.86,0,0,0,.69,1h.15a.85.85,0,0,0,.83-.71c0-.21.07-1.56.09-4C106.28,111.11,101.92,107.51,96.57,107.51Z"/><path class="cls-1" d="M94.35,106.07A6.38,6.38,0,1,0,88,99.69,6.39,6.39,0,0,0,94.35,106.07Zm0-11.06a4.68,4.68,0,1,1-4.68,4.68A4.69,4.69,0,0,1,94.35,95Z"/><path class="cls-1" d="M119.69,128.36H69.32a3.55,3.55,0,0,0-3.54,3.54v29.42a3.55,3.55,0,0,0,3.54,3.54h50.37a3.54,3.54,0,0,0,3.54-3.54V131.9A3.54,3.54,0,0,0,119.69,128.36Zm1.84,33a1.84,1.84,0,0,1-1.84,1.84H69.32a1.85,1.85,0,0,1-1.84-1.84V131.9a1.85,1.85,0,0,1,1.84-1.84h50.37a1.84,1.84,0,0,1,1.84,1.84Z"/><path class="cls-1" d="M96.57,148.73H92.14c-5.36,0-9.72,3.6-9.72,8,0,2.43,0,3.77.09,4a.83.83,0,0,0,.95.68.87.87,0,0,0,.73-.94c0-.24,0-2.09-.07-3.73,0-3.5,3.6-6.35,8-6.35h4.43c4.41,0,8,2.85,8,6.34,0,1.65,0,3.5-.06,3.71a.85.85,0,0,0,.69,1l.15,0a.85.85,0,0,0,.83-.71c0-.22.07-1.56.09-4C106.28,152.33,101.92,148.73,96.57,148.73Z"/><path class="cls-1" d="M94.35,147.28A6.38,6.38,0,1,0,88,140.91,6.38,6.38,0,0,0,94.35,147.28Zm0-11.05a4.68,4.68,0,1,1-4.68,4.68A4.69,4.69,0,0,1,94.35,136.23Z"/><path class="cls-1" d="M182.68,87.14H132.31a3.54,3.54,0,0,0-3.54,3.54V120.1a3.54,3.54,0,0,0,3.54,3.54h50.37a3.55,3.55,0,0,0,3.54-3.54V90.68A3.55,3.55,0,0,0,182.68,87.14Zm1.84,33a1.85,1.85,0,0,1-1.84,1.84H132.31a1.84,1.84,0,0,1-1.84-1.84V90.68a1.84,1.84,0,0,1,1.84-1.84h50.37a1.85,1.85,0,0,1,1.84,1.84Z"/><path class="cls-1" d="M159.55,107.51h-4.43c-5.35,0-9.71,3.6-9.71,8,0,2.42.05,3.77.08,4a.84.84,0,0,0,.95.69.87.87,0,0,0,.73-1c0-.24,0-2.09-.06-3.73,0-3.5,3.59-6.35,8-6.35h4.43c4.42,0,8,2.85,8,6.34,0,1.65,0,3.5-.06,3.71a.86.86,0,0,0,.7,1h.14a.85.85,0,0,0,.84-.71c0-.21.06-1.56.08-4C169.26,111.11,164.91,107.51,159.55,107.51Z"/><path class="cls-1" d="M157.34,106.07A6.38,6.38,0,1,0,151,99.69,6.39,6.39,0,0,0,157.34,106.07Zm0-11.06a4.68,4.68,0,1,1-4.68,4.68A4.68,4.68,0,0,1,157.34,95Z"/><path class="cls-1" d="M182.68,128.36H132.31a3.54,3.54,0,0,0-3.54,3.54v29.42a3.54,3.54,0,0,0,3.54,3.54h50.37a3.55,3.55,0,0,0,3.54-3.54V131.9A3.55,3.55,0,0,0,182.68,128.36Zm1.84,33a1.85,1.85,0,0,1-1.84,1.84H132.31a1.84,1.84,0,0,1-1.84-1.84V131.9a1.84,1.84,0,0,1,1.84-1.84h50.37a1.85,1.85,0,0,1,1.84,1.84Z"/><path class="cls-1" d="M159.55,148.73h-4.43c-5.35,0-9.71,3.6-9.71,8,0,2.43.05,3.77.08,4a.83.83,0,0,0,.95.68.85.85,0,0,0,.73-.94c0-.24,0-2.09-.06-3.73,0-3.5,3.59-6.35,8-6.35h4.43c4.42,0,8,2.85,8,6.34,0,1.65,0,3.5-.06,3.71a.85.85,0,0,0,.7,1l.14,0a.85.85,0,0,0,.84-.71c0-.22.06-1.56.08-4C169.26,152.33,164.91,148.73,159.55,148.73Z"/><path class="cls-1" d="M157.34,147.28a6.38,6.38,0,1,0-6.38-6.37A6.38,6.38,0,0,0,157.34,147.28Zm0-11.05a4.68,4.68,0,1,1-4.68,4.68A4.68,4.68,0,0,1,157.34,136.23Z"/></svg>