<svg id="Layer_1" data-name="Layer 1" xmlns="http://www.w3.org/2000/svg" viewBox="0 0 252 252"><defs><style>.cls-1{fill:#ef9071;}</style></defs><title>Mixily_LandingPage_Icon</title><path class="cls-1" d="M166.92,85.19a10.26,10.26,0,0,0-14.5,0l-43.74,43.74a1,1,0,0,0-.24.39L102,148.85a1,1,0,0,0,1,1.31,1.12,1.12,0,0,0,.31,0l19.53-6.44a1,1,0,0,0,.39-.24l43.74-43.74A10.26,10.26,0,0,0,166.92,85.19Zm-1.41,13.08-43.57,43.58-17.42,5.74,5.74-17.42L153.84,86.6a8.27,8.27,0,0,1,11.67,0A8.26,8.26,0,0,1,165.51,98.27Z"/><path class="cls-1" d="M152.83,120.6a1,1,0,0,0-1,1v46.21H84.08V100.07H130a1,1,0,0,0,0-2H83.08a1,1,0,0,0-1,1v69.74a1,1,0,0,0,1,1h69.75a1,1,0,0,0,1-1V121.6A1,1,0,0,0,152.83,120.6Z"/></svg>