<svg id="Layer_1" data-name="Layer 1" height="220px" xmlns="http://www.w3.org/2000/svg" viewBox="0 0 252 252"><defs><style>.cls-1{fill:#231f20;}</style></defs><title>Mixily_LandingPage_Icon</title><path class="cls-1" d="M182.66,76H116a4.66,4.66,0,0,0-4.66,4.65V125.7a4.81,4.81,0,0,0,4.66,4.65h66.69a4.66,4.66,0,0,0,4.65-4.65v-45A4.65,4.65,0,0,0,182.66,76Zm2.65,49.7a2.65,2.65,0,0,1-2.65,2.65H116a2.61,2.61,0,0,1-2-1,2.57,2.57,0,0,1-.63-1.62v-45A2.66,2.66,0,0,1,116,78h66.69a2.65,2.65,0,0,1,2.65,2.65Z"/><path class="cls-1" d="M163,138.22a1,1,0,0,0-1,1v9.3a2.66,2.66,0,0,1-2.66,2.66H92.66A2.66,2.66,0,0,1,90,148.52v-45a2.66,2.66,0,0,1,2.66-2.66h10a1,1,0,0,0,0-2h-10A4.66,4.66,0,0,0,88,103.48v45a4.66,4.66,0,0,0,4.66,4.66h66.68a4.66,4.66,0,0,0,4.66-4.66v-9.3A1,1,0,0,0,163,138.22Z"/><path class="cls-1" d="M139.69,161.05a1,1,0,0,0-1,1v9.3A2.66,2.66,0,0,1,136,174H69.34a2.65,2.65,0,0,1-2.65-2.65v-45a2.65,2.65,0,0,1,2.65-2.65h10a1,1,0,0,0,0-2h-10a4.66,4.66,0,0,0-4.65,4.65v45.05A4.65,4.65,0,0,0,69.34,176H136a4.66,4.66,0,0,0,4.66-4.65v-9.3A1,1,0,0,0,139.69,161.05Z"/></svg>