<svg id="Layer_1" data-name="Layer 1" xmlns="http://www.w3.org/2000/svg" viewBox="0 0 252 252"><defs><style>.cls-1{fill:#fff;}</style></defs><title>Mixily_LandingPage_Icon</title><path class="cls-1" d="M88.87,83.51a1.5,1.5,0,0,0-1.42-.12L4.15,120.07a1.5,1.5,0,0,0-.89,1.37v20.83a1.5,1.5,0,0,0,.89,1.37l83.3,36.68a1.58,1.58,0,0,0,.6.13,1.52,1.52,0,0,0,.82-.25,1.48,1.48,0,0,0,.68-1.25V155a1.5,1.5,0,0,0-.93-1.39L35,131.86l53.65-21.74a1.5,1.5,0,0,0,.93-1.39v-24A1.49,1.49,0,0,0,88.87,83.51Zm-2.32,24.2L30.46,130.45a1.54,1.54,0,0,0-.94,1.43,1.5,1.5,0,0,0,.94,1.39L86.55,156v20.65L6.26,141.29V122.42L86.55,87.07Z"/><path class="cls-1" d="M159.18,52H137.47A1.51,1.51,0,0,0,136,53.08L97,198.14a1.51,1.51,0,0,0,.25,1.3,1.53,1.53,0,0,0,1.2.59h21.71a1.5,1.5,0,0,0,1.44-1.11L160.63,53.86a1.51,1.51,0,0,0-.26-1.3A1.49,1.49,0,0,0,159.18,52ZM119,197H100.38L138.62,55h18.6Z"/><path class="cls-1" d="M247.85,120.07l-83.3-36.68a1.5,1.5,0,0,0-2.1,1.38v24a1.5,1.5,0,0,0,.94,1.39L217,131.86,163.39,153.6a1.5,1.5,0,0,0-.94,1.39v24a1.48,1.48,0,0,0,.68,1.25,1.52,1.52,0,0,0,.82.25,1.58,1.58,0,0,0,.6-.13l83.3-36.68a1.5,1.5,0,0,0,.89-1.37V121.44A1.5,1.5,0,0,0,247.85,120.07Zm-2.11,21.22-80.29,35.36V156l56.09-22.73a1.55,1.55,0,0,0,.94-1.43,1.5,1.5,0,0,0-.94-1.39l-56.09-22.74V87.07l80.29,35.35Z"/></svg>