<svg id="Layer_1" data-name="Layer 1" height="220px" xmlns="http://www.w3.org/2000/svg" viewBox="0 0 252 252"><defs><style>.cls-1{fill:#231f20;}</style></defs><title>Mixily_LandingPage_Icon</title><path class="cls-1" d="M68.78,120a5.16,5.16,0,0,0-5.15,5.15,22.15,22.15,0,0,1-44.3,0,5.15,5.15,0,0,0-10.3,0,32.52,32.52,0,0,0,27.3,32v8.42H25.58a5.15,5.15,0,0,0,0,10.3h31.8a5.15,5.15,0,1,0,0-10.3H46.63V157.1a32.52,32.52,0,0,0,27.3-32A5.16,5.16,0,0,0,68.78,120ZM45.5,155.25a1,1,0,0,0-.87,1v10.28a1,1,0,0,0,1,1H57.38a3.15,3.15,0,1,1,0,6.3H25.58a3.15,3.15,0,0,1,0-6.3H37.33a1,1,0,0,0,1-1V156.24a1,1,0,0,0-.87-1A30.52,30.52,0,0,1,11,125.1a3.15,3.15,0,0,1,6.3,0,24.15,24.15,0,1,0,48.3,0,3.15,3.15,0,0,1,6.3,0A30.51,30.51,0,0,1,45.5,155.25Z"/><path class="cls-1" d="M41.28,137.16a18.48,18.48,0,0,0,18.45-18.45V94.64a18.46,18.46,0,1,0-36.91,0v24.07A18.48,18.48,0,0,0,41.28,137.16ZM24.82,94.64a16.46,16.46,0,1,1,32.91,0v24.07a16.47,16.47,0,0,1-16.45,16.45h0a16.47,16.47,0,0,1-16.46-16.45Z"/><path class="cls-1" d="M204.46,97.82h-48a8,8,0,0,0-8,8v40.38a8,8,0,0,0,8,8h48a8,8,0,0,0,8-8V105.81A8,8,0,0,0,204.46,97.82Zm6,48.37a6,6,0,0,1-6,6h-48a6,6,0,0,1-6-6V105.81a6,6,0,0,1,6-6h48a6,6,0,0,1,6,6Z"/><path class="cls-1" d="M241.46,100.29c-.56-.24-1.73-.43-3.25,1l-12.67,12.17a12.37,12.37,0,0,0-3.37,7.91v9.31a12.37,12.37,0,0,0,3.37,7.91l12.67,12.17a3.59,3.59,0,0,0,2.43,1.19,2.2,2.2,0,0,0,.82-.16c.56-.24,1.51-1,1.51-3.06V103.34C243,101.24,242,100.53,241.46,100.29ZM241,148.75c0,.9-.25,1.2-.29,1.22s-.43,0-1.08-.64l-12.67-12.16a10.44,10.44,0,0,1-2.76-6.47v-9.31a10.44,10.44,0,0,1,2.76-6.47l12.67-12.16c.57-.55.93-.64,1-.64h0c.05,0,.3.31.3,1.21Z"/></svg>