<svg xmlns="http://www.w3.org/2000/svg" height="220px" width="300px" viewBox="0 0 304.12 78.61"><defs><style>.cls-1,.cls-2,.cls-3{fill:none;stroke:#231f20;stroke-linecap:round;stroke-linejoin:round;}.cls-1{stroke-width:2px;}.cls-2{stroke-width:1.8px;}.cls-3{stroke-width:1.81px;}</style></defs><title>Asset 9</title><g id="Layer_2" data-name="Layer 2"><g id="Layer_2-2" data-name="Layer 2"><path class="cls-1" d="M117.13,77.15A5.89,5.89,0,0,0,123,71.27V6.89A5.89,5.89,0,0,0,117.13,1H6.89A5.88,5.88,0,0,0,1,6.89V71.27a5.88,5.88,0,0,0,5.88,5.88Z"/><path class="cls-2" d="M37.58,71c-.1-.56-.16-9.7-.16-9.7,0-8.7,8.69-15.74,19.4-15.74h9.7c10.71,0,19.39,7,19.39,15.74,0,0-.06,9.14-.16,9.7"/><path class="cls-2" d="M61.67,38.7a12.11,12.11,0,1,1,12.1-12.1A12.1,12.1,0,0,1,61.67,38.7Z"/><path class="cls-3" d="M237.54,36.48a2.68,2.68,0,0,0,2.69-2.69V4.38a2.68,2.68,0,0,0-2.69-2.69H187.17a2.68,2.68,0,0,0-2.69,2.69V33.79a2.68,2.68,0,0,0,2.69,2.69Z"/><path class="cls-3" d="M201.19,33.68c0-.26-.07-4.44-.07-4.44,0-4,4-7.19,8.86-7.19h4.43c4.9,0,8.87,3.22,8.87,7.19,0,0,0,4.18-.08,4.44"/><path class="cls-3" d="M212.2,18.91a5.53,5.53,0,1,1,5.53-5.53A5.53,5.53,0,0,1,212.2,18.91Z"/><path class="cls-3" d="M237.54,77.7A2.68,2.68,0,0,0,240.23,75V45.6a2.68,2.68,0,0,0-2.69-2.69H187.17a2.68,2.68,0,0,0-2.69,2.69V75a2.68,2.68,0,0,0,2.69,2.69Z"/><path class="cls-3" d="M201.19,74.9c0-.26-.07-4.44-.07-4.44,0-4,4-7.19,8.86-7.19h4.43c4.9,0,8.87,3.22,8.87,7.19,0,0,0,4.18-.08,4.44"/><path class="cls-3" d="M212.2,60.13a5.53,5.53,0,1,1,5.53-5.53A5.54,5.54,0,0,1,212.2,60.13Z"/><path class="cls-3" d="M300.53,36.48a2.69,2.69,0,0,0,2.69-2.69V4.38a2.69,2.69,0,0,0-2.69-2.69H250.15a2.69,2.69,0,0,0-2.69,2.69V33.79a2.69,2.69,0,0,0,2.69,2.69Z"/><path class="cls-3" d="M264.18,33.68c-.05-.26-.07-4.44-.07-4.44,0-4,4-7.19,8.86-7.19h4.43c4.89,0,8.86,3.22,8.86,7.19,0,0,0,4.18-.07,4.44"/><path class="cls-3" d="M275.18,18.91a5.53,5.53,0,1,1,5.53-5.53A5.52,5.52,0,0,1,275.18,18.91Z"/><path class="cls-3" d="M300.53,77.7A2.69,2.69,0,0,0,303.22,75V45.6a2.69,2.69,0,0,0-2.69-2.69H250.15a2.69,2.69,0,0,0-2.69,2.69V75a2.69,2.69,0,0,0,2.69,2.69Z"/><path class="cls-3" d="M264.18,74.9c-.05-.26-.07-4.44-.07-4.44,0-4,4-7.19,8.86-7.19h4.43c4.89,0,8.86,3.22,8.86,7.19,0,0,0,4.18-.07,4.44"/><path class="cls-3" d="M275.18,60.13a5.53,5.53,0,1,1,5.53-5.53A5.53,5.53,0,0,1,275.18,60.13Z"/></g></g></svg>