<svg id="Layer_1" data-name="Layer 1" height="220px" xmlns="http://www.w3.org/2000/svg" viewBox="0 0 252 252"><defs><style>.cls-1{fill:#231f20;}</style></defs><title>Mixily_LandingPage_Icon</title><path class="cls-1" d="M45.8,125.33a22.21,22.21,0,1,0-22.21-22.21A22.23,22.23,0,0,0,45.8,125.33Zm0-42.42a20.21,20.21,0,1,1-20.21,20.21A20.24,20.24,0,0,1,45.8,82.91Z"/><path class="cls-1" d="M83.79,157.64a1,1,0,0,0-1,1v8.42a16.54,16.54,0,0,1-.12,2H8.93a16.42,16.42,0,0,1-.12-2V154.72c0-13.05,13.19-23.67,29.39-23.67H53.4a36.34,36.34,0,0,1,5.65.45,1,1,0,1,0,.31-2,37.89,37.89,0,0,0-6-.48H38.2c-17.31,0-31.39,11.52-31.39,25.67v12.34a18,18,0,0,0,.28,3.21,1,1,0,0,0,1,.82H83.53a1,1,0,0,0,1-.82,18.18,18.18,0,0,0,.28-3.21v-8.42A1,1,0,0,0,83.79,157.64Z"/><path class="cls-1" d="M111.33,121.36h-14a.86.86,0,0,1-.86-.85v-14a.85.85,0,0,0-.85-.85H81.05a.85.85,0,0,0-.85.85v14a.85.85,0,0,1-.86.85h-14a.85.85,0,0,0-.85.85v14.58a.86.86,0,0,0,.85.86h14a.85.85,0,0,1,.86.85v14a.85.85,0,0,0,.85.86H95.63a.85.85,0,0,0,.85-.86v-14a.86.86,0,0,1,.86-.85h14a.87.87,0,0,0,.86-.86V122.21A.86.86,0,0,0,111.33,121.36Zm-1.14,14.29H97.34a2.86,2.86,0,0,0-2.86,2.85v12.85H82.2V138.5a2.86,2.86,0,0,0-2.86-2.85H66.5V123.36H79.34a2.86,2.86,0,0,0,2.86-2.85V107.66H94.48v12.85a2.86,2.86,0,0,0,2.86,2.85h12.85Z"/><path class="cls-1" d="M178.8,125.33a22.21,22.21,0,1,0-22.21-22.21A22.23,22.23,0,0,0,178.8,125.33Zm0-42.42a20.21,20.21,0,1,1-20.21,20.21A20.24,20.24,0,0,1,178.8,82.91Z"/><path class="cls-1" d="M216.79,157.64a1,1,0,0,0-1,1v8.42a16.54,16.54,0,0,1-.12,2H141.93a16.42,16.42,0,0,1-.12-2V154.72c0-13.05,13.19-23.67,29.39-23.67h15.2a36.34,36.34,0,0,1,5.65.45,1,1,0,1,0,.31-2,37.89,37.89,0,0,0-6-.48H171.2c-17.3,0-31.39,11.52-31.39,25.67v12.34a18,18,0,0,0,.28,3.21,1,1,0,0,0,1,.82h75.46a1,1,0,0,0,1-.82,17.28,17.28,0,0,0,.28-3.21v-8.42A1,1,0,0,0,216.79,157.64Z"/><path class="cls-1" d="M244.33,121.36h-14a.86.86,0,0,1-.86-.85v-14a.85.85,0,0,0-.85-.85H214.05a.85.85,0,0,0-.85.85v14a.85.85,0,0,1-.85.85h-14a.85.85,0,0,0-.85.85v14.58a.86.86,0,0,0,.85.86h14a.85.85,0,0,1,.85.85v14a.85.85,0,0,0,.85.86h14.58a.85.85,0,0,0,.85-.86v-14a.86.86,0,0,1,.86-.85h14a.87.87,0,0,0,.86-.86V122.21A.86.86,0,0,0,244.33,121.36Zm-1.14,14.29H230.34a2.86,2.86,0,0,0-2.86,2.85v12.85H215.2V138.5a2.86,2.86,0,0,0-2.85-2.85H199.5V123.36h12.85a2.86,2.86,0,0,0,2.85-2.85V107.66h12.28v12.85a2.86,2.86,0,0,0,2.86,2.85h12.85Z"/></svg>