<svg id="Layer_1" data-name="Layer 1" xmlns="http://www.w3.org/2000/svg" viewBox="0 0 252 252"><defs><style>.cls-1{fill:#ef9071;}</style></defs><title>Mixily_LandingPage_Icon</title><path class="cls-1" d="M180.79,92.92a3.64,3.64,0,0,0-3.64-3.63H74.85a3.64,3.64,0,0,0-3.64,3.63,15.57,15.57,0,0,0,1.14,5.73,1,1,0,0,0-.14.48v62.58a1,1,0,0,0,1,1H178.79a1,1,0,0,0,1-1v-63a.82.82,0,0,0-.07-.3A15.41,15.41,0,0,0,180.79,92.92ZM74.85,91.29h102.3a1.64,1.64,0,0,1,1.64,1.63c0,4.12-2.18,8.47-5.22,10.37L129.4,134a6.41,6.41,0,0,1-6.76,0L78.39,103.27c-3-1.88-5.18-6.23-5.18-10.35A1.64,1.64,0,0,1,74.85,91.29Zm102.94,69.42H74.21V102a11.6,11.6,0,0,0,3.07,2.92l44.26,30.74A8.35,8.35,0,0,0,126,137a8.46,8.46,0,0,0,4.51-1.3L174.68,105a11.72,11.72,0,0,0,3.11-2.95Z"/></svg>