<svg id="Layer_1" data-name="Layer 1" xmlns="http://www.w3.org/2000/svg" viewBox="0 0 252 252"><defs><style>.cls-1{fill:#ef9071;}</style></defs><title>Mixily_LandingPage_Icon</title><path class="cls-1" d="M144.89,93a1,1,0,0,0,1.29-.57,14.32,14.32,0,1,1,13.36,19.46,14.22,14.22,0,0,1-8.65-2.91,1,1,0,0,0-1.21,1.6,16.32,16.32,0,1,0,9.86-29.32,16.42,16.42,0,0,0-15.23,10.45A1,1,0,0,0,144.89,93Z"/><path class="cls-1" d="M125.47,124.31A18.45,18.45,0,1,0,107,105.86,18.47,18.47,0,0,0,125.47,124.31Zm0-34.9A16.45,16.45,0,1,1,109,105.86,16.47,16.47,0,0,1,125.47,89.41Z"/><path class="cls-1" d="M141.67,122.83a1,1,0,0,0-1.23.18,20.56,20.56,0,0,1-29.94,0,1,1,0,0,0-1.22-.18,34.58,34.58,0,0,0-17.17,29.9v9.58a1,1,0,0,0,1,1h0c7.28,4.66,19.34,7.44,32.35,7.44s25.09-2.77,32.37-7.44a1,1,0,0,0,1-1V152.7a34.86,34.86,0,0,0-1.21-9.09A34.44,34.44,0,0,0,141.67,122.83Zm15.17,38.72c-7,4.49-18.67,7.17-31.37,7.17s-24.4-2.68-31.36-7.17V152.7a32.59,32.59,0,0,1,15.51-27.77,22.69,22.69,0,0,0,15.85,6.53,22.36,22.36,0,0,0,15.86-6.5,32.52,32.52,0,0,1,15.51,27.74Z"/><path class="cls-1" d="M187.88,131.07a30.25,30.25,0,0,0-14.06-18.31,1,1,0,0,0-1.23.17,17.88,17.88,0,0,1-23,2.56,1,1,0,1,0-1.12,1.66,19.88,19.88,0,0,0,25-2.27A28.55,28.55,0,0,1,187,139.08v7.7c-4.87,3.12-12.59,5.3-21.25,6a1,1,0,0,0,.08,2h.08c8.95-.72,17-3,22.12-6.28a1,1,0,0,0,1-1v-8.42A30.56,30.56,0,0,0,187.88,131.07Z"/><path class="cls-1" d="M92.46,113.91a16.24,16.24,0,0,0,9.86-3.31,1,1,0,0,0-1.21-1.6,14.32,14.32,0,1,1-8.65-25.72,14.39,14.39,0,0,1,13.36,9.17,1,1,0,0,0,1.87-.72,16.32,16.32,0,1,0-15.23,22.18Z"/><path class="cls-1" d="M86.29,152.78c-8.66-.7-16.38-2.88-21.25-6v-7.7a28.55,28.55,0,0,1,13.48-24.2,19.88,19.88,0,0,0,25,2.27,1,1,0,1,0-1.12-1.66,17.88,17.88,0,0,1-23-2.56,1,1,0,0,0-1.23-.17,30.25,30.25,0,0,0-14.06,18.31,30.56,30.56,0,0,0-1.08,8v8.42a1,1,0,0,0,1,1c5.13,3.28,13.17,5.56,22.12,6.28h.08a1,1,0,0,0,.08-2Z"/></svg>