<svg id="Layer_1" data-name="Layer 1" xmlns="http://www.w3.org/2000/svg" viewBox="0 0 252 252"><defs><style>.cls-1{fill:#ef9071;}</style></defs><title>Mixily_LandingPage_Icon</title><path class="cls-1" d="M163.06,113.27a164.26,164.26,0,0,0-8.63-36.44,1,1,0,0,0-1.62-.36c-.31.29-31.28,29.44-83.34,31.3a1,1,0,0,0-.94.78,1.06,1.06,0,0,0,0,.59c.64,1.76,24.7,66.24,68,66.24h.17a15.32,15.32,0,0,0,10-3.76C160.4,159.79,166,139.61,163.06,113.27Zm-17.59,56.84a13.31,13.31,0,0,1-8.7,3.27h-.16c-38.63,0-62-54.54-65.66-63.67,46.43-2.11,76.11-25.6,82.12-30.79C156.42,88.41,174.64,144.76,145.47,170.11Z"/><path class="cls-1" d="M117.13,126.38a1,1,0,0,0,0-.86c0-.1-5-10.22-15.78-6.18s-7.82,14.93-7.79,15a1,1,0,0,0,.57.65,1.1,1.1,0,0,0,.4.08A1,1,0,0,0,95,135a104.53,104.53,0,0,1,21.47-8.07A1,1,0,0,0,117.13,126.38Zm-21.88,6.24c-.36-2.62-.35-8.72,6.81-11.41a11.74,11.74,0,0,1,4.18-.82,10.27,10.27,0,0,1,8.45,4.92A109.77,109.77,0,0,0,95.25,132.62Z"/><path class="cls-1" d="M136.51,106.12c-10.74,4-7.83,14.93-7.79,15a1,1,0,0,0,.57.65.88.88,0,0,0,.39.08,1,1,0,0,0,.47-.12,105.43,105.43,0,0,1,21.47-8.06,1,1,0,0,0,.66-.55,1,1,0,0,0,0-.86C152.23,112.2,147.25,102.08,136.51,106.12ZM130.4,119.4c-.36-2.62-.34-8.72,6.81-11.4a11.82,11.82,0,0,1,4.18-.82c4.57,0,7.31,3.19,8.46,4.92A109.85,109.85,0,0,0,130.4,119.4Z"/><path class="cls-1" d="M146.92,137.22a1,1,0,0,0-.87,0,164.9,164.9,0,0,1-31.39,11.8,1,1,0,0,0-.65,1.4,16.69,16.69,0,0,0,14.75,9.17,20.67,20.67,0,0,0,7.27-1.41c12.2-4.59,12.83-15.31,11.45-20.34A1,1,0,0,0,146.92,137.22Zm-11.6,19.11c-11.2,4.22-17.07-2.85-18.89-5.68a169.79,169.79,0,0,0,29.36-11C146.29,143,146.52,152.13,135.32,156.33Z"/><path class="cls-1" d="M183.07,86.55a1,1,0,0,0-1.46-.78,97.39,97.39,0,0,1-17.11,6.41,1,1,0,0,0-.69,1.23,1,1,0,0,0,1.24.69,105.88,105.88,0,0,0,16.14-5.9c.65,10.08,2.9,69.22-32.06,85.7a1,1,0,0,0-.48,1.34,1,1,0,0,0,.9.57.94.94,0,0,0,.43-.1c16.32-7.69,27.21-25.58,31.5-51.74A164.75,164.75,0,0,0,183.07,86.55Z"/></svg>