<svg id="Layer_1" data-name="Layer 1" xmlns="http://www.w3.org/2000/svg" viewBox="0 0 252 252"><defs><style>.cls-1{fill:#fff;}</style></defs><title>Mixily_LandingPage_Icon</title><path class="cls-1" d="M193.71,58.76a21.82,21.82,0,0,0-30.83,0L66.94,154.7a1.59,1.59,0,0,0-.37.59L52.45,198.12a1.51,1.51,0,0,0,1.89,1.9l42.83-14.13a1.43,1.43,0,0,0,.59-.36l96-95.94A21.82,21.82,0,0,0,193.71,58.76ZM95.89,183.16,56.23,196.24l13.08-39.67L165,60.88a18.8,18.8,0,1,1,26.59,26.58Z"/><path class="cls-1" d="M204.64,202.75l-14.12-42.83a1.45,1.45,0,0,0-.37-.59L166.87,136a1.51,1.51,0,0,0-2.12,0L136,164.75a1.51,1.51,0,0,0,0,2.12l23.29,23.28a1.45,1.45,0,0,0,.59.37l42.83,14.12a1.5,1.5,0,0,0,.47.08,1.53,1.53,0,0,0,1.06-.44A1.49,1.49,0,0,0,204.64,202.75Zm-43.44-15-22-22,26.59-26.59,22,22,13.08,39.66Z"/><path class="cls-1" d="M85.12,116a1.5,1.5,0,0,0,2.12,0L116,87.24a1.51,1.51,0,0,0,0-2.12L84.48,53.66A21.79,21.79,0,1,0,53.66,84.48ZM55.78,55.78a18.78,18.78,0,0,1,26.58,0l30.41,30.4L86.18,112.77,55.78,82.36A18.81,18.81,0,0,1,55.78,55.78Z"/></svg>