<svg id="Layer_1" data-name="Layer 1" xmlns="http://www.w3.org/2000/svg" viewBox="0 0 252 252"><defs><style>.cls-1{fill:#ef9071;}</style></defs><title>Mixily_LandingPage_Icon</title><path class="cls-1" d="M175.49,86.61a1,1,0,0,0-1-.92c-31.17-.88-45.25,10.67-48.52,13.85-3.28-3.18-17.38-14.74-48.53-13.85a1,1,0,0,0-1,.92L71.22,154a1,1,0,0,0,.27.77,1.15,1.15,0,0,0,.75.31c38.15-1,53,10.94,53.12,11.06l.07,0a.78.78,0,0,0,.15.1h0a1,1,0,0,0,.78,0h0a.78.78,0,0,0,.15-.1l.07,0c.14-.12,15-12,53.12-11.06a1.13,1.13,0,0,0,.75-.31,1,1,0,0,0,.27-.77ZM73.3,153l5.13-65.38C109.57,87,123.06,99.42,125,101.38v62.05c-4.58-3-19-10.42-48.27-10.42ZM127,163.43V101.38a37.59,37.59,0,0,1,10.59-7.08c6.81-3.24,18.58-7,36-6.64L178.7,153C147.18,152.43,131.76,160.36,127,163.43Z"/></svg>