<svg id="Layer_1" data-name="Layer 1" height="220px" xmlns="http://www.w3.org/2000/svg" viewBox="0 0 252 252"><defs><style>.cls-1{fill:#231f20;}</style></defs><title>Mixily_LandingPage_Icon</title><path class="cls-1" d="M181.12,86.92H70.88A6.9,6.9,0,0,0,64,93.81v64.38a6.9,6.9,0,0,0,6.89,6.89H181.12a6.9,6.9,0,0,0,6.89-6.89V93.81A6.9,6.9,0,0,0,181.12,86.92ZM186,158.19a4.89,4.89,0,0,1-4.89,4.89H70.88A4.89,4.89,0,0,1,66,158.19V93.81a4.89,4.89,0,0,1,4.89-4.89H181.12A4.89,4.89,0,0,1,186,93.81Z"/><path class="cls-1" d="M130.51,131.49h-9.7c-11.25,0-20.4,7.51-20.4,16.75,0,2.77.07,9.28.18,9.87a1,1,0,0,0,1.12.8,1,1,0,0,0,.85-1.12c-.06-.55-.12-6.16-.15-9.56,0-8.13,8.26-14.74,18.4-14.74h9.7c10.14,0,18.39,6.61,18.39,14.73,0,3.41-.08,9-.14,9.55a1,1,0,0,0,.81,1.15l.17,0a1,1,0,0,0,1-.83c.1-.58.15-7.1.17-9.88C150.9,139,141.75,131.49,130.51,131.49Z"/><path class="cls-1" d="M125.66,126.62a13.1,13.1,0,1,0-13.1-13.1A13.12,13.12,0,0,0,125.66,126.62Zm0-24.2a11.1,11.1,0,1,1-11.1,11.1A11.11,11.11,0,0,1,125.66,102.42Z"/></svg>