<svg id="Layer_1" data-name="Layer 1" xmlns="http://www.w3.org/2000/svg" viewBox="0 0 252 252"><defs><style>.cls-1{fill:#ef9071;}</style></defs><title>Mixily_LandingPage_Icon</title><path class="cls-1" d="M90.33,115.12a1,1,0,0,0-.43.74,1,1,0,0,0,.28.83.81.81,0,0,1,.09.1,26,26,0,0,0,13.87,7.26,13,13,0,0,0,2.32.21,13.57,13.57,0,0,0,9.59-4l13.41-13.4a13.53,13.53,0,0,0,3.8-11.92A26,26,0,0,0,126,81.06l-.08-.07a1,1,0,0,0-.81-.29,1,1,0,0,0-.74.45,113.15,113.15,0,0,1-15.14,18.68A113.57,113.57,0,0,1,90.33,115.12Zm35-31.83a24,24,0,0,1,5.92,12,11.52,11.52,0,0,1-3.24,10.15l-13.41,13.41a11.55,11.55,0,0,1-10.15,3.25,24.1,24.1,0,0,1-12-6,116,116,0,0,0,18.18-14.88A116.11,116.11,0,0,0,125.37,83.29Z"/><path class="cls-1" d="M87.2,112.57a1,1,0,0,0,.71-.29,1,1,0,0,0,0-1.41c-8.63-8.75-8.27-22.23.84-31.34s22.76-9.33,31.37-.8a1,1,0,1,0,1.41-1.42c-9.4-9.32-24.42-9-34.19.81s-10.13,24.75-.85,34.15A1,1,0,0,0,87.2,112.57Z"/><path class="cls-1" d="M168.37,160.32a15.5,15.5,0,0,0,4.28-7.25,1,1,0,0,0-.19-.85l-4.82-6.06L134.49,107a1,1,0,0,0-.82-.35,1,1,0,0,0-.77.44,12.68,12.68,0,0,1-1.45,1.77h0L118,122.24a11.84,11.84,0,0,1-3.11,2.22,1,1,0,0,0-.21,1.67l39.52,33.42,6.1,4.84a1,1,0,0,0,.62.21.86.86,0,0,0,.23,0,14.59,14.59,0,0,0,5.29-2.61,13.31,13.31,0,0,1-2.21,10.17c-3.61,4.83-10.44,7.57-18.28,7.29a18.42,18.42,0,0,1-7.46-1.55c-5.5-2.62-8-8.39-10.69-14.5a65.41,65.41,0,0,0-4.29-8.63,29.33,29.33,0,0,0-43.87-6.66,1,1,0,0,0-.11,1.41,1,1,0,0,0,1.4.11,27.33,27.33,0,0,1,40.89,6.21,63.17,63.17,0,0,1,4.15,8.36c2.7,6.18,5.49,12.56,11.66,15.5a20.2,20.2,0,0,0,8.25,1.75l1.11,0c8,0,15-3,18.85-8.12a15.17,15.17,0,0,0,2.3-12.83ZM155.51,158l-38.4-32.47a13.68,13.68,0,0,0,2.34-1.88l13.41-13.4a12.83,12.83,0,0,0,.92-1l32.32,38.19,4.48,5.66a14.11,14.11,0,0,1-3.59,5.79.81.81,0,0,0-.37,0,1,1,0,0,0-.66.89,13.26,13.26,0,0,1-4.77,2.7Z"/></svg>