<svg xmlns="http://www.w3.org/2000/svg" width="27px" viewBox="0 0 30.51 24.79"><title>Asset 7</title><g id="Layer_2" data-name="Layer 2"><g id="Layer_2-2" data-name="Layer 2"><path d="M2.58,21.42V11.55H.93a.92.92,0,0,0-.93.92v11.4a.92.92,0,0,0,.93.92H17.79a.92.92,0,0,0,.93-.92V22.35H3.51A.93.93,0,0,1,2.58,21.42Z"/><path d="M8.48,15.65V5.77H6.82a.93.93,0,0,0-.92.93V18.09a.93.93,0,0,0,.92.93H23.69a.93.93,0,0,0,.93-.93V16.57H9.41A.93.93,0,0,1,8.48,15.65Z"/><path d="M29.59,0H12.72a.92.92,0,0,0-.92.93V12.32a.89.89,0,0,0,.21.57.92.92,0,0,0,.71.36H29.59a.93.93,0,0,0,.92-.93V.93A.92.92,0,0,0,29.59,0Z"/></g></g></svg>