<svg xmlns="http://www.w3.org/2000/svg" width="20px" viewBox="0 0 26.77 26.75"><defs><style>.cls-1{fill:#231f20;}</style></defs><title>Asset 4</title><g id="Layer_2" data-name="Layer 2"><g id="Layer_2-2" data-name="Layer 2"><path class="cls-1" d="M4.36,2.56H7.94A1.28,1.28,0,0,0,7.94,0H0V7.93a1.28,1.28,0,1,0,2.56,0V4.36L8.9,10.71a1.29,1.29,0,0,0,.91.38,1.27,1.27,0,0,0,.9-.38,1.28,1.28,0,0,0,0-1.81Z"/><path class="cls-1" d="M18.84,0a1.28,1.28,0,0,0,0,2.56h3.57L16.06,8.9a1.28,1.28,0,1,0,1.81,1.81l6.35-6.35V7.93a1.28,1.28,0,1,0,2.55,0V0Z"/><path class="cls-1" d="M25.49,17.54a1.27,1.27,0,0,0-1.27,1.28v3.57L17.87,16a1.28,1.28,0,0,0-1.81,1.81l6.35,6.35H18.84a1.28,1.28,0,1,0,0,2.55h7.93V18.82A1.28,1.28,0,0,0,25.49,17.54Z"/><path class="cls-1" d="M8.9,16,2.56,22.39V18.82a1.28,1.28,0,0,0-2.56,0v7.93H7.94a1.28,1.28,0,0,0,0-2.55H4.36l6.35-6.35A1.28,1.28,0,0,0,8.9,16Z"/></g></g></svg>