<svg id="Layer_1" data-name="Layer 1" height="220px" xmlns="http://www.w3.org/2000/svg" viewBox="0 0 252 252"><defs><style>.cls-1{fill:#231f20;}</style></defs><title>Mixily_LandingPage_Icon</title><path class="cls-1" d="M112.3,125.33a22.21,22.21,0,1,0-22.21-22.21A22.23,22.23,0,0,0,112.3,125.33Zm0-42.42a20.21,20.21,0,1,1-20.21,20.21A20.24,20.24,0,0,1,112.3,82.91Z"/><path class="cls-1" d="M150.29,157.64a1,1,0,0,0-1,1v8.42a16.54,16.54,0,0,1-.12,2H75.43a16.54,16.54,0,0,1-.12-2V154.72c0-13.05,13.19-23.67,29.39-23.67h15.2a36.34,36.34,0,0,1,5.65.45,1,1,0,1,0,.31-2,37.89,37.89,0,0,0-6-.48H104.7c-17.3,0-31.39,11.52-31.39,25.67v12.34a18.18,18.18,0,0,0,.28,3.21,1,1,0,0,0,1,.82H150a1,1,0,0,0,1-.82,17.28,17.28,0,0,0,.28-3.21v-8.42A1,1,0,0,0,150.29,157.64Z"/><path class="cls-1" d="M177.83,121.36h-14a.86.86,0,0,1-.86-.85v-14a.85.85,0,0,0-.85-.85H147.55a.85.85,0,0,0-.85.85v14a.85.85,0,0,1-.85.85h-14a.85.85,0,0,0-.85.85v14.58a.86.86,0,0,0,.85.86h14a.85.85,0,0,1,.85.85v14a.85.85,0,0,0,.85.86h14.58a.85.85,0,0,0,.85-.86v-14a.86.86,0,0,1,.86-.85h14a.87.87,0,0,0,.86-.86V122.21A.86.86,0,0,0,177.83,121.36Zm-1.14,14.29H163.84A2.86,2.86,0,0,0,161,138.5v12.85H148.7V138.5a2.86,2.86,0,0,0-2.85-2.85H133V123.36h12.85a2.86,2.86,0,0,0,2.85-2.85V107.66H161v12.85a2.86,2.86,0,0,0,2.86,2.85h12.85Z"/></svg>