<svg id="Layer_1" data-name="Layer 1" height="220px" xmlns="http://www.w3.org/2000/svg" viewBox="0 0 252 252"><defs><style>.cls-1{fill:#231f20;}</style></defs><title>Mixily_LandingPage_Icon</title><path class="cls-1" d="M162.26,121.72a1,1,0,0,0-1.32.53,58.87,58.87,0,0,1-5.82,10.37c-5.53,8-12.8,15.53-22.89,23.57-7.14,5.7-16.88,12.61-28.87,15.44-17.24,4.06-30.63-1.92-39.81-17.78V151.6a16.63,16.63,0,0,1,6.32-6.83c.91-.58,1.82-1.19,2.73-1.8,3.78-2.54,7.36-4.93,11.74-5.89a8.09,8.09,0,0,1,7.89,2.19,52.34,52.34,0,0,1,5.09,5.93c3.64,5,7.34,6.16,12.4,4A63.39,63.39,0,0,0,122,141.9a61.34,61.34,0,0,0,14.54-14.53,26.68,26.68,0,0,0,2.35-4.35c1.76-4,1-7.63-2.27-10.87-1.64-1.62-3.21-3.33-4.82-5.09-3-3.34-3.51-7-1.45-10.87a48,48,0,0,1,12.88-15.26c3.46-2.71,6.19-2.37,9.45,1.17,1.42,1.54,3.05,3.35,4.53,5.2a1,1,0,0,0,1.57-1.24c-1.52-1.91-3.19-3.74-4.63-5.31-4-4.33-7.84-4.77-12.15-1.4a50,50,0,0,0-13.41,15.9c-2.47,4.63-1.87,9.18,1.73,13.15,1.62,1.78,3.22,3.52,4.89,5.18,2.66,2.62,3.26,5.44,1.85,8.63a25.14,25.14,0,0,1-2.17,4,59.46,59.46,0,0,1-14.08,14,61.56,61.56,0,0,1-11.88,7c-4.19,1.83-6.89.94-10-3.3a54.69,54.69,0,0,0-5.29-6.16,10.11,10.11,0,0,0-9.73-2.73c-4.76,1-8.66,3.65-12.43,6.18-.9.6-1.8,1.2-2.7,1.78A18.44,18.44,0,0,0,61.64,151a1,1,0,0,0-.09.42v2.74a1.05,1.05,0,0,0,.13.49C69.41,168.1,80,174.88,93.25,174.88a46.14,46.14,0,0,0,10.57-1.31c12.37-2.92,22.35-10,29.66-15.81,10.24-8.17,17.64-15.8,23.29-24a61.3,61.3,0,0,0,6-10.73A1,1,0,0,0,162.26,121.72Z"/><path class="cls-1" d="M190.4,95.51a1,1,0,0,0-.81-.68L174.1,92.57l-6.94-14a1,1,0,0,0-1.79,0l-6.93,14L143,94.83a1,1,0,0,0-.56,1.7l11.22,10.93L151,122.9a1,1,0,0,0,1.45,1l13.86-7.29L180.13,124a1,1,0,0,0,.46.11,1,1,0,0,0,.59-.19,1,1,0,0,0,.4-1l-2.65-15.44,11.22-10.93A1,1,0,0,0,190.4,95.51ZM177.16,106.4a1,1,0,0,0-.29.88l2.4,14-12.54-6.59a.93.93,0,0,0-.46-.12,1,1,0,0,0-.47.12l-12.53,6.59,2.39-14a1,1,0,0,0-.28-.88l-10.14-9.89,14-2a1,1,0,0,0,.75-.55l6.27-12.7,6.26,12.7a1,1,0,0,0,.76.55l14,2Z"/></svg>