<svg id="Layer_1" data-name="Layer 1" height="220px" xmlns="http://www.w3.org/2000/svg" viewBox="0 0 252 252"><defs><style>.cls-1{fill:#231f20;}</style></defs><title>Mixily_LandingPage_Icon</title><path class="cls-1" d="M126,69.39A56.61,56.61,0,1,0,182.61,126,56.68,56.68,0,0,0,126,69.39Zm0,111.22A54.61,54.61,0,1,1,180.61,126,54.67,54.67,0,0,1,126,180.61Z"/><path class="cls-1" d="M95.55,119.35a5.73,5.73,0,0,1-1.34,1.17,6.27,6.27,0,0,1-1.61.71,7,7,0,0,1-1.76.23,4.52,4.52,0,0,1-2.66-.78,4.26,4.26,0,0,1-1.61-2.3,8,8,0,0,1-.11-3.74,10.13,10.13,0,0,1,1.4-3.88,7.14,7.14,0,0,1,2.47-2.4,6.05,6.05,0,0,1,3.06-.82,5.39,5.39,0,0,1,1.58.23,4,4,0,0,1,1.31.71,3.45,3.45,0,0,1,.91,1.16,3.81,3.81,0,0,1,.38,1.6h2.07a6.17,6.17,0,0,0-.49-2.39,5,5,0,0,0-1.29-1.78A5.45,5.45,0,0,0,95.93,106a7.35,7.35,0,0,0-2.44-.38,8.18,8.18,0,0,0-4.09,1.06,9.33,9.33,0,0,0-3.19,3,12.11,12.11,0,0,0-1.75,4.69,10,10,0,0,0,.21,4.82,6.06,6.06,0,0,0,2.26,3.15,6.61,6.61,0,0,0,3.84,1.1,8,8,0,0,0,2.49-.38,8.08,8.08,0,0,0,4.07-2.9,8.64,8.64,0,0,0,1.26-2.39H96.48A5.45,5.45,0,0,1,95.55,119.35Z"/><path class="cls-1" d="M112.9,113.26a4.64,4.64,0,0,0-1.72-2.42,5.1,5.1,0,0,0-3-.86,6.24,6.24,0,0,0-3.17.82,7,7,0,0,0-2.4,2.31,9,9,0,0,0-1.3,3.5,7.73,7.73,0,0,0,.17,3.6,4.59,4.59,0,0,0,1.72,2.4,5.07,5.07,0,0,0,3,.86,6.21,6.21,0,0,0,3.16-.82,7.14,7.14,0,0,0,2.41-2.3,9.07,9.07,0,0,0,1.29-3.47A7.82,7.82,0,0,0,112.9,113.26Zm-1.78,3.35a7.64,7.64,0,0,1-.84,2.49,5.41,5.41,0,0,1-1.65,1.86,4.12,4.12,0,0,1-2.4.71,2.86,2.86,0,0,1-2-.67,3.18,3.18,0,0,1-.94-1.76,6.42,6.42,0,0,1,0-2.36,8,8,0,0,1,.85-2.51,5.34,5.34,0,0,1,1.65-1.87,4,4,0,0,1,2.39-.72,2.86,2.86,0,0,1,2,.68,3.18,3.18,0,0,1,.94,1.77A6.54,6.54,0,0,1,111.12,116.61Z"/><path class="cls-1" d="M129.43,111.78a2.54,2.54,0,0,1,1.76.62,2.21,2.21,0,0,1,.45,2.07l-1.46,8.73h2l1.46-8.73a4.06,4.06,0,0,0-.55-3.39,3.34,3.34,0,0,0-2.67-1.1,5.17,5.17,0,0,0-2.51.6,4.66,4.66,0,0,0-1.77,1.61H126a3,3,0,0,0-1.08-1.63,3.36,3.36,0,0,0-2-.58,4.55,4.55,0,0,0-2.28.58,4.18,4.18,0,0,0-1.6,1.63h-.17l.34-2h-1.93l-2.18,13h2l1.36-8.16a3.9,3.9,0,0,1,.68-1.68,4.06,4.06,0,0,1,1.29-1.16,3,3,0,0,1,1.52-.42,2.22,2.22,0,0,1,1.75.68,2.06,2.06,0,0,1,.43,1.8l-1.5,8.94h2l1.43-8.5a3.49,3.49,0,0,1,1.09-2.09A3.22,3.22,0,0,1,129.43,111.78Z"/><polygon class="cls-1" points="135.85 123.2 137.86 123.2 140.03 110.15 138.03 110.15 135.85 123.2"/><path class="cls-1" d="M139.64,107.94a1.4,1.4,0,0,0,1-.4,1.26,1.26,0,0,0,.42-1,1.29,1.29,0,0,0-.42-1,1.5,1.5,0,0,0-2,0,1.29,1.29,0,0,0-.42,1,1.26,1.26,0,0,0,.42,1A1.4,1.4,0,0,0,139.64,107.94Z"/><path class="cls-1" d="M151.86,110.52a4.27,4.27,0,0,0-2.22-.54,4.9,4.9,0,0,0-2.52.61,4.6,4.6,0,0,0-1.65,1.6h-.17l.34-2H143.7l-2.17,13h2l1.29-7.85a4.82,4.82,0,0,1,.77-1.94,3.79,3.79,0,0,1,3.17-1.63,2.39,2.39,0,0,1,2.05.87,3,3,0,0,1,.4,2.39l-1.36,8.16h2l1.39-8.29a5.64,5.64,0,0,0-.1-2.76A2.93,2.93,0,0,0,151.86,110.52Z"/><path class="cls-1" d="M166.66,110.15l-.34,2.07h-.2q-.17-.33-.48-.87a2.92,2.92,0,0,0-1-.95,3.78,3.78,0,0,0-2-.42,5.85,5.85,0,0,0-3,.82,7,7,0,0,0-2.34,2.31,9.31,9.31,0,0,0-1.28,3.5,7,7,0,0,0,.15,3.46,4.07,4.07,0,0,0,1.62,2.18,4.86,4.86,0,0,0,2.71.74,4.69,4.69,0,0,0,2.09-.4,4.3,4.3,0,0,0,1.3-.93,9.25,9.25,0,0,0,.76-.88h.17l-.41,2.65a3.38,3.38,0,0,1-1.46,2.4,4.94,4.94,0,0,1-2.75.76,4.09,4.09,0,0,1-1.86-.34,2.69,2.69,0,0,1-1-.81c-.21-.31-.39-.58-.52-.82l-1.8,1.12A4.15,4.15,0,0,0,156,127a4.33,4.33,0,0,0,1.57,1,7,7,0,0,0,2.45.37,8.39,8.39,0,0,0,2.91-.5,5.62,5.62,0,0,0,2.3-1.55,5.44,5.44,0,0,0,1.21-2.74l2.21-13.42Zm-1.08,6.42a7,7,0,0,1-.86,2.48,4.57,4.57,0,0,1-1.56,1.59,4.13,4.13,0,0,1-2.14.55,3.08,3.08,0,0,1-2-.59,2.79,2.79,0,0,1-1-1.63,6.39,6.39,0,0,1,0-2.4,8,8,0,0,1,.8-2.41,4.9,4.9,0,0,1,1.51-1.73,3.79,3.79,0,0,1,2.21-.65,3.07,3.07,0,0,1,2,.61,3.1,3.1,0,0,1,1,1.69A6.24,6.24,0,0,1,165.58,116.57Z"/><path class="cls-1" d="M103.67,136.81a3.85,3.85,0,0,1,2.08-.55,2.9,2.9,0,0,1,1.4.28,2,2,0,0,1,.77.7,3.36,3.36,0,0,1,.35.89l1.9-.51a3.83,3.83,0,0,0-1.21-2.25,4.31,4.31,0,0,0-2.9-.84,6.6,6.6,0,0,0-2.54.48,5.34,5.34,0,0,0-1.94,1.34,3.73,3.73,0,0,0-1,2,2.72,2.72,0,0,0,.46,2.24,4.26,4.26,0,0,0,2.42,1.33l2.07.51a2.58,2.58,0,0,1,1.37.68,1.34,1.34,0,0,1,.27,1.15,2.12,2.12,0,0,1-1.07,1.44,4.22,4.22,0,0,1-2.33.6,3,3,0,0,1-1.9-.53,2.1,2.1,0,0,1-.75-1.58l-2,.48a3.19,3.19,0,0,0,1.24,2.52,5.22,5.22,0,0,0,3.18.88,7.08,7.08,0,0,0,2.74-.51,5.42,5.42,0,0,0,2-1.4,3.85,3.85,0,0,0,1-2,2.67,2.67,0,0,0-.49-2.24,4.48,4.48,0,0,0-2.4-1.29l-1.86-.48a3.71,3.71,0,0,1-1.57-.72,1.25,1.25,0,0,1-.34-1.18A2,2,0,0,1,103.67,136.81Z"/><path class="cls-1" d="M122.12,135.39a5.11,5.11,0,0,0-3-.86,6.21,6.21,0,0,0-3.16.82,7,7,0,0,0-2.41,2.31,9.1,9.1,0,0,0-1.29,3.49,7.73,7.73,0,0,0,.17,3.6,4.66,4.66,0,0,0,1.71,2.41,5.1,5.1,0,0,0,3,.86,6.32,6.32,0,0,0,3.17-.82,7.08,7.08,0,0,0,2.41-2.31,8.94,8.94,0,0,0,1.29-3.47,7.83,7.83,0,0,0-.16-3.62A4.66,4.66,0,0,0,122.12,135.39Zm-.06,5.76a7.61,7.61,0,0,1-.84,2.5,5.43,5.43,0,0,1-1.66,1.86,4.08,4.08,0,0,1-2.39.7,2.9,2.9,0,0,1-2-.66,3.15,3.15,0,0,1-.94-1.76,6.48,6.48,0,0,1,0-2.37,8,8,0,0,1,.85-2.5,5.38,5.38,0,0,1,1.65-1.88,4.09,4.09,0,0,1,2.39-.71,2.86,2.86,0,0,1,2,.67,3.24,3.24,0,0,1,.94,1.78A6.48,6.48,0,0,1,122.06,141.15Z"/><path class="cls-1" d="M136.39,135.39a5.13,5.13,0,0,0-3-.86,6.27,6.27,0,0,0-3.17.82,7,7,0,0,0-2.4,2.31,9.1,9.1,0,0,0-1.29,3.49,7.73,7.73,0,0,0,.17,3.6,4.55,4.55,0,0,0,1.71,2.41,5.1,5.1,0,0,0,3,.86,6.34,6.34,0,0,0,3.17-.82,7,7,0,0,0,2.4-2.31,8.64,8.64,0,0,0,1.29-3.47,7.57,7.57,0,0,0-.16-3.62A4.59,4.59,0,0,0,136.39,135.39Zm-.06,5.76a7.63,7.63,0,0,1-.85,2.5,5.31,5.31,0,0,1-1.65,1.86,4.1,4.1,0,0,1-2.39.7,2.88,2.88,0,0,1-2-.66,3.16,3.16,0,0,1-.95-1.76,6.72,6.72,0,0,1,0-2.37,7.79,7.79,0,0,1,.85-2.5,5.25,5.25,0,0,1,1.64-1.88,4.12,4.12,0,0,1,2.4-.71,2.86,2.86,0,0,1,2,.67,3.31,3.31,0,0,1,.94,1.78A6.71,6.71,0,0,1,136.33,141.15Z"/><path class="cls-1" d="M150.6,135.07a4.23,4.23,0,0,0-2.21-.54,4.91,4.91,0,0,0-2.53.61,4.6,4.6,0,0,0-1.65,1.6H144l.34-2h-1.94l-2.17,13h2l1.29-7.84a4.91,4.91,0,0,1,.77-1.94,3.74,3.74,0,0,1,1.39-1.21,3.83,3.83,0,0,1,1.78-.42,2.38,2.38,0,0,1,2.05.87,3,3,0,0,1,.4,2.39l-1.36,8.15h2l1.4-8.28a5.74,5.74,0,0,0-.11-2.76A2.93,2.93,0,0,0,150.6,135.07Z"/></svg>