<svg id="Layer_1" data-name="Layer 1" height="220px" xmlns="http://www.w3.org/2000/svg" viewBox="0 0 252 252"><defs><style>.cls-1{fill:#231f20;}</style></defs><title>Mixily_LandingPage_Icon</title><path class="cls-1" d="M102.54,114.74a6.87,6.87,0,1,0,6.86,6.86A6.87,6.87,0,0,0,102.54,114.74Zm0,11.73a4.87,4.87,0,1,1,4.86-4.87A4.88,4.88,0,0,1,102.54,126.47Z"/><path class="cls-1" d="M126,114.74a6.87,6.87,0,1,0,6.87,6.86A6.87,6.87,0,0,0,126,114.74Zm0,11.73a4.87,4.87,0,1,1,4.87-4.87A4.88,4.88,0,0,1,126,126.47Z"/><path class="cls-1" d="M149.46,114.74a6.87,6.87,0,1,0,6.87,6.86A6.87,6.87,0,0,0,149.46,114.74Zm0,11.73a4.87,4.87,0,1,1,4.87-4.87A4.87,4.87,0,0,1,149.46,126.47Z"/><path class="cls-1" d="M163.36,154c10.45-8.6,16.43-20.38,16.43-32.42,0-21.4-18.11-39.92-43.06-44a62.67,62.67,0,0,0-10.73-1c-29.66,0-53.79,20.18-53.79,45,0,15.71,9.5,30,25.41,38.19a61.51,61.51,0,0,0,28.38,6.8,63.1,63.1,0,0,0,16.72-2.26,72.94,72.94,0,0,0,27.08,11,.65.65,0,0,0,.19,0,1,1,0,0,0,.82-.43,1,1,0,0,0,0-1.08A73.55,73.55,0,0,1,163.36,154Zm-19.9,8.4a1.06,1.06,0,0,0-.57-.17,1.24,1.24,0,0,0-.27,0A60.78,60.78,0,0,1,126,164.59,59.55,59.55,0,0,1,98.54,158c-15.24-7.86-24.33-21.47-24.33-36.42,0-23.7,23.23-43,51.79-43a60.92,60.92,0,0,1,10.4.92c24,4,41.39,21.65,41.39,42.07,0,11.62-5.89,23-16.17,31.25a1,1,0,0,0-.35,1,77.38,77.38,0,0,0,6.8,19.14A70.77,70.77,0,0,1,143.46,162.42Z"/></svg>