<svg id="Layer_1" data-name="Layer 1" height="220px" xmlns="http://www.w3.org/2000/svg" viewBox="0 0 252 252"><defs><style>.cls-1{fill:#231f20;}</style></defs><title>Mixily_LandingPage_Icon</title><path class="cls-1" d="M182.8,94.3c-.64-.28-2-.48-3.77,1.23l-15.73,15.1a15.06,15.06,0,0,0-4.11,9.65v11.56a15.11,15.11,0,0,0,4.11,9.65L179,156.59a4.19,4.19,0,0,0,2.85,1.41,2.23,2.23,0,0,0,.92-.18c.65-.28,1.73-1.1,1.73-3.57V97.87C184.53,95.4,183.45,94.57,182.8,94.3Zm-.27,60c0,1-.27,1.63-.51,1.73s-.85-.11-1.6-.83L164.68,140a13.28,13.28,0,0,1-3.49-8.2V120.28a13.29,13.29,0,0,1,3.49-8.21L180.42,97a2.56,2.56,0,0,1,1.46-.86.32.32,0,0,1,.14,0c.24.1.51.69.51,1.73Z"/><path class="cls-1" d="M106.81,135.08a6.87,6.87,0,0,0,.11,13.73h0a6.87,6.87,0,0,0,4.89-2.14,6.79,6.79,0,0,0,2-4.9A7,7,0,0,0,106.81,135.08Zm3.58,10.2a4.9,4.9,0,0,1-3.46,1.53h0a4.87,4.87,0,1,1,4.87-5A4.81,4.81,0,0,1,110.39,145.28Z"/><path class="cls-1" d="M106.82,119.16a23.18,23.18,0,0,0-15.51,6.27c-2.16,2-2.41,4.7-.61,6.64a4.17,4.17,0,0,0,3.09,1.41A5.52,5.52,0,0,0,97.35,132c6-5.19,13.18-5.15,19.26.09,2.2,1.9,4.94,1.85,6.66-.13s1.43-4.42-.69-6.43A23,23,0,0,0,106.82,119.16Zm14.94,11.48h0c-1,1.12-2.49,1.09-3.85-.08-6.9-5.94-15.07-6-21.87-.08-.68.59-2.42,1.79-3.88.22-1-1.11-.84-2.54.52-3.82a20.52,20.52,0,0,1,28.52.09C122.14,127.86,123,129.21,121.76,130.64Z"/><path class="cls-1" d="M105.48,103.19l-.18,0-1.67.23A59.33,59.33,0,0,0,97,104.58a36.65,36.65,0,0,0-17.14,9.69c-2,2-2.21,4.56-.41,6.48s4.27,1.91,6.49,0c.27-.22.52-.46.77-.7s.46-.43.7-.63a30,30,0,0,1,40.16.94,5.82,5.82,0,0,0,3.84,1.83h.14a4.24,4.24,0,0,0,3-1.51c.89-1,2.58-3.57-1-6.87C126,106.82,117.1,103.44,105.48,103.19Zm27.58,16.15a2.32,2.32,0,0,1-1.59.87,3.91,3.91,0,0,1-2.54-1.3,31.49,31.49,0,0,0-20.2-8.68c-.63,0-1.25,0-1.86,0a31.25,31.25,0,0,0-20.75,7.74c-.27.22-.52.46-.78.7s-.45.43-.69.63c-1,.83-2.43,1.53-3.74.13s-.39-2.95.35-3.68a34.66,34.66,0,0,1,16.22-9.18,60,60,0,0,1,6.41-1.1l1.64-.22c11,.25,19.52,3.46,26.66,10.09C134.66,117.6,133.5,118.86,133.06,119.34Z"/><path class="cls-1" d="M136.76,91.25H77.16a9.7,9.7,0,0,0-9.69,9.69v50.12a9.7,9.7,0,0,0,9.69,9.69h59.6a9.7,9.7,0,0,0,9.69-9.69V100.94A9.7,9.7,0,0,0,136.76,91.25Zm7.69,59.81a7.7,7.7,0,0,1-7.69,7.69H77.16a7.7,7.7,0,0,1-7.69-7.69V100.94a7.7,7.7,0,0,1,7.69-7.69h59.6a7.7,7.7,0,0,1,7.69,7.69Z"/></svg>