<svg xmlns="http://www.w3.org/2000/svg" width="22px" viewBox="0 0 25.33 25.32"><title>Asset 9</title><g id="Layer_2" data-name="Layer 2"><g id="Layer_2-2" data-name="Layer 2"><g id="_6v5T5Y" data-name="6v5T5Y"><path d="M0,13.65v-2a1.3,1.3,0,0,1,1.19-.9c.68-.09,1.35-.23,2-.33a.34.34,0,0,0,.32-.28,8.61,8.61,0,0,1,.92-2.22.27.27,0,0,0,0-.35C4,7,3.57,6.38,3.14,5.77a1.1,1.1,0,0,1,.13-1.54c.3-.31.6-.61.91-.91a1.13,1.13,0,0,1,1.65-.14L7.75,4.55a10.33,10.33,0,0,1,2.54-1.08.3.3,0,0,0,.14-.21c.14-.79.27-1.58.41-2.36A1.09,1.09,0,0,1,11.92,0h1.44a1.11,1.11,0,0,1,1.18,1c.12.75.26,1.49.37,2.24a.25.25,0,0,0,.22.24,9.19,9.19,0,0,1,2.8,1.26.27.27,0,0,0,.35,0c.63-.41,1.26-.81,1.9-1.2a1.11,1.11,0,0,1,1.53.21l.89,1a1.14,1.14,0,0,1,0,1.61c-.47.58-.94,1.17-1.42,1.74a.29.29,0,0,0,0,.33c.22.57.44,1.13.64,1.71a.35.35,0,0,0,.33.28c.77.12,1.53.24,2.29.39a1.06,1.06,0,0,1,.88,1.09c0,.46,0,.93,0,1.39a1.13,1.13,0,0,1-1,1.22l-2.19.36a.28.28,0,0,0-.27.23,8.19,8.19,0,0,1-.94,2.27.29.29,0,0,0,0,.36l1.35,1.88a1.12,1.12,0,0,1-.13,1.55l-.93.92a1.12,1.12,0,0,1-1.61.14L17.73,20.9a.26.26,0,0,0-.31,0,8.41,8.41,0,0,1-2.3.95.24.24,0,0,0-.2.23c-.1.66-.24,1.33-.33,2a1.34,1.34,0,0,1-.94,1.28h-2a1.27,1.27,0,0,1-.88-1.08c-.1-.71-.24-1.42-.34-2.14,0-.16-.08-.25-.24-.29a8.83,8.83,0,0,1-2.72-1.2.24.24,0,0,0-.32,0L5.24,21.82a1.1,1.1,0,0,1-1.56-.21c-.29-.31-.56-.63-.84-.94A1.14,1.14,0,0,1,2.8,19c.5-.62,1-1.23,1.45-1.8-.26-.73-.5-1.43-.76-2.12a.35.35,0,0,0-.25-.17c-.64-.12-1.28-.24-1.93-.32A1.37,1.37,0,0,1,0,13.65Zm6.88-1a5.83,5.83,0,1,0,5.83-5.83A5.84,5.84,0,0,0,6.88,12.66Z"/></g></g></g></svg>