<svg xmlns="http://www.w3.org/2000/svg" width="27px" viewBox="0 0 30.49 24.63"><title>Asset 8</title><g id="Layer_2" data-name="Layer 2"><g id="Layer_2-2" data-name="Layer 2"><path d="M5.14,13.66H17.82a1.35,1.35,0,0,0,0-2.69H5.14l4-4a1.34,1.34,0,1,0-1.9-1.89L0,12.32l7.27,7.27a1.34,1.34,0,0,0,1.9-1.9Z"/><path d="M27.65,0H16a2.86,2.86,0,0,0-2.85,2.85V6a1.35,1.35,0,1,0,2.69,0V2.85A.17.17,0,0,1,16,2.68H27.65a.17.17,0,0,1,.16.17V21.79a.16.16,0,0,1-.16.16H16a.16.16,0,0,1-.16-.16V18.61a1.35,1.35,0,0,0-2.69,0v3.18A2.85,2.85,0,0,0,16,24.63H27.65a2.84,2.84,0,0,0,2.84-2.84V2.85A2.85,2.85,0,0,0,27.65,0Z"/></g></g></svg>